#tb 0: 1/25
#media_type 0: video
#codec_id 0: rawvideo
#dimensions 0: 192x128
#sar 0: 0/1
0,          0,          0,        1,    36864, 0x579e6274
0,          1,          1,        1,    36864, 0x8650c61c
0,          2,          2,        1,    36864, 0xbc359647
0,          3,          3,        1,    36864, 0x08d91c13
0,          4,          4,        1,    36864, 0xe8b79043
0,          5,          5,        1,    36864, 0x2f16085a
0,          6,          6,        1,    36864, 0x81e89739
0,          7,          7,        1,    36864, 0xf2f324dd
0,          8,          8,        1,    36864, 0x592b5a01
0,          9,          9,        1,    36864, 0x4c2f2d91
0,         11,         11,        1,    36864, 0x8baeb610
0,         12,         12,        1,    36864, 0x86d47617
0,         13,         13,        1,    36864, 0xf11011cc
0,         14,         14,        1,    36864, 0xe56a9daa
0,         15,         15,        1,    36864, 0xd57119d6
0,         16,         16,        1,    36864, 0xe28fcde7
0,         17,         17,        1,    36864, 0x9aeeba86
0,         18,         18,        1,    36864, 0xa518a7c5
0,         19,         19,        1,    36864, 0x9af410be
0,         20,         20,        1,    36864, 0x1fedd12f
0,         21,         21,        1,    36864, 0xa8032e03
0,         22,         22,        1,    36864, 0x579e6274
0,         23,         23,        1,    36864, 0x99846ef6
0,         24,         24,        1,    36864, 0xb5ad3ca7
0,         25,         25,        1,    36864, 0x7845cb90
0,         26,         26,        1,    36864, 0x569fae24
0,         27,         27,        1,    36864, 0x8a3c9f98
0,         28,         28,        1,    36864, 0x0b7722af
0,         29,         29,        1,    36864, 0x699c2dd8
0,         30,         30,        1,    36864, 0xd477af13
0,         31,         31,        1,    36864, 0x17b62d7c
0,         32,         32,        1,    36864, 0xb1ecf6a7
0,         33,         33,        1,    36864, 0xf9c17e4c
0,         34,         34,        1,    36864, 0xe7c44618
0,         35,         35,        1,    36864, 0x7e23654e
0,         36,         36,        1,    36864, 0xd8a0457c
0,         37,         37,        1,    36864, 0x57e11df1
0,         38,         38,        1,    36864, 0xd54d2a43
0,         39,         39,        1,    36864, 0xc6f03950
0,         40,         40,        1,    36864, 0x687e750e
0,         41,         41,        1,    36864, 0x2870b546
0,         42,         42,        1,    36864, 0xda0370d0
0,         43,         43,        1,    36864, 0x5a2e0bff
0,         44,         44,        1,    36864, 0xe1f07533
0,         45,         45,        1,    36864, 0x3de892b9
0,         46,         46,        1,    36864, 0xe5c31505
0,         47,         47,        1,    36864, 0x96b8c082
0,         48,         48,        1,    36864, 0x55391423
0,         49,         49,        1,    36864, 0xc285bd71
0,         50,         50,        1,    36864, 0xf702d9f3
0,         51,         51,        1,    36864, 0x7afbadf8
0,         52,         52,        1,    36864, 0xd9b568f7
0,         53,         53,        1,    36864, 0x579e6274
0,         54,         54,        1,    36864, 0x8650c61c
0,         55,         55,        1,    36864, 0xbc359647
0,         56,         56,        1,    36864, 0x5522328c
0,         57,         57,        1,    36864, 0x02821fd6
0,         58,         58,        1,    36864, 0xb4ee9562
0,         59,         59,        1,    36864, 0xcefedb68
0,         60,         60,        1,    36864, 0xd959782e
